<svg width="32" height="41" viewBox="0 0 32 41" fill="none" xmlns="http://www.w3.org/2000/svg">
<path d="M25.6 12.3C27.2974 12.3 28.9253 12.9479 30.1255 14.1013C31.3257 15.2546 32 16.8189 32 18.45V34.85C32 36.4811 31.3257 38.0454 30.1255 39.1987C28.9253 40.3521 27.2974 41 25.6 41H6.4C4.70261 41 3.07475 40.3521 1.87452 39.1987C0.674284 38.0454 0 36.4811 0 34.85V18.45C0 16.8189 0.674284 15.2546 1.87452 14.1013C3.07475 12.9479 4.70261 12.3 6.4 12.3V9.225C6.4 4.1 10.6667 0 16 0C21.3333 0 25.6 4.1 25.6 9.225V12.3ZM6.4 14.35C5.26841 14.35 4.18317 14.782 3.38301 15.5509C2.58286 16.3198 2.13333 17.3626 2.13333 18.45V34.85C2.13333 35.9374 2.58286 36.9802 3.38301 37.7491C4.18317 38.518 5.26841 38.95 6.4 38.95H25.6C26.7316 38.95 27.8168 38.518 28.617 37.7491C29.4171 36.9802 29.8667 35.9374 29.8667 34.85V18.45C29.8667 17.3626 29.4171 16.3198 28.617 15.5509C27.8168 14.782 26.7316 14.35 25.6 14.35H6.4ZM23.4667 12.3V9.225C23.4667 7.32207 22.68 5.49708 21.2797 4.15151C19.8795 2.80594 17.9803 2.05 16 2.05C14.0197 2.05 12.1205 2.80594 10.7203 4.15151C9.32 5.49708 8.53333 7.32207 8.53333 9.225V12.3H23.4667ZM16 24.6C15.1513 24.6 14.3374 24.924 13.7373 25.5006C13.1371 26.0773 12.8 26.8595 12.8 27.675C12.8 28.4905 13.1371 29.2727 13.7373 29.8494C14.3374 30.426 15.1513 30.75 16 30.75C16.8487 30.75 17.6626 30.426 18.2627 29.8494C18.8629 29.2727 19.2 28.4905 19.2 27.675C19.2 26.8595 18.8629 26.0773 18.2627 25.5006C17.6626 24.924 16.8487 24.6 16 24.6ZM16 22.55C17.4145 22.55 18.771 23.09 19.7712 24.0511C20.7714 25.0122 21.3333 26.3158 21.3333 27.675C21.3333 29.0342 20.7714 30.3378 19.7712 31.2989C18.771 32.26 17.4145 32.8 16 32.8C14.5855 32.8 13.229 32.26 12.2288 31.2989C11.2286 30.3378 10.6667 29.0342 10.6667 27.675C10.6667 26.3158 11.2286 25.0122 12.2288 24.0511C13.229 23.09 14.5855 22.55 16 22.55Z" fill="black"/>
</svg>
