<svg width="36" height="29" viewBox="0 0 36 29" fill="none" xmlns="http://www.w3.org/2000/svg">
<path fill-rule="evenodd" clip-rule="evenodd" d="M3.94167 2.15L17.4867 12.3088C17.6107 12.4018 17.7616 12.4521 17.9167 12.4521C18.0717 12.4521 18.2226 12.4018 18.3467 12.3088L31.8917 2.15H3.94167ZM33.6833 3.49375L19.6367 14.0288C19.1405 14.4009 18.5369 14.6021 17.9167 14.6021C17.2964 14.6021 16.6929 14.4009 16.1967 14.0288L2.15 3.49375V26.5167H33.6833V3.49375ZM1.79167 0H34.0417C34.5168 0 34.9726 0.188765 35.3086 0.524767C35.6446 0.86077 35.8333 1.31649 35.8333 1.79167V26.875C35.8333 27.3502 35.6446 27.8059 35.3086 28.1419C34.9726 28.4779 34.5168 28.6667 34.0417 28.6667H1.79167C1.31649 28.6667 0.86077 28.4779 0.524767 28.1419C0.188764 27.8059 0 27.3502 0 26.875V1.79167C0 1.31649 0.188764 0.86077 0.524767 0.524767C0.86077 0.188765 1.31649 0 1.79167 0Z" fill="black"/>
</svg>
